<svg xmlns="http://www.w3.org/2000/svg" xmlns:xlink="http://www.w3.org/1999/xlink" width="24" height="24" version="1.1" viewBox="0 0 24 24"><title>icon/action/perm_identity_24px_two_tone</title><desc>Created with Sketch.</desc><defs><circle id="path-1" cx="2" cy="2" r="2"/><path id="path-3" d="M6,0 C3.3,0 0.2,1.29 0,2.01 L0,3 L12,3 L12,2 C11.8,1.29 8.7,0 6,0 Z"/><path id="path-5" d="M4,8 C6.21,8 8,6.21 8,4 C8,1.79 6.21,0 4,0 C1.79,0 0,1.79 0,4 C0,6.21 1.79,8 4,8 Z M4,2 C5.1,2 6,2.9 6,4 C6,5.1 5.1,6 4,6 C2.9,6 2,5.1 2,4 C2,2.9 2.9,2 4,2 Z"/><path id="path-7" d="M8,0 C5.33,0 0,1.34 0,4 L0,7 L16,7 L16,4 C16,1.34 10.67,0 8,0 Z M14,5 L2,5 L2,4.01 C2.2,3.29 5.3,2 8,2 C10.7,2 13.8,3.29 14,4 L14,5 Z"/></defs><g id="icon/action/perm_identity_24px" fill="none" fill-rule="evenodd" stroke="none" stroke-width="1"><g id="↳-Light-Color" transform="translate(10.000000, 6.000000)"><mask id="mask-2" fill="#fff"><use xlink:href="#path-1"/></mask><g id="✱-/-Color-/-Icons-/-Black-/-Disabled" fill="#1A7DFF" fill-opacity=".38" mask="url(#mask-2)"><rect id="Rectangle" width="101" height="101" x="0" y="0"/></g></g><g id="↳-Light-Color" transform="translate(6.000000, 15.000000)"><mask id="mask-4" fill="#fff"><use xlink:href="#path-3"/></mask><g id="✱-/-Color-/-Icons-/-Black-/-Disabled" fill="#1A7DFF" fill-opacity=".38" mask="url(#mask-4)"><rect id="Rectangle" width="101" height="101" x="0" y="0"/></g></g><g id="↳-Dark-Color" transform="translate(8.000000, 4.000000)"><mask id="mask-6" fill="#fff"><use xlink:href="#path-5"/></mask><g id="✱-/-Color-/-Icons-/-Black-/-Inactive" fill="#1A49FF" mask="url(#mask-6)"><rect id="Rectangle" width="101" height="101" x="0" y="0"/></g></g><g id="↳-Dark-Color" transform="translate(4.000000, 13.000000)"><mask id="mask-8" fill="#fff"><use xlink:href="#path-7"/></mask><g id="✱-/-Color-/-Icons-/-Black-/-Inactive" fill="#1A49FF" mask="url(#mask-8)"><rect id="Rectangle" width="101" height="101" x="0" y="0"/></g></g></g></svg>