<svg xmlns="http://www.w3.org/2000/svg" xmlns:xlink="http://www.w3.org/1999/xlink" width="24" height="24" version="1.1" viewBox="0 0 24 24"><title>icon/navigation/refresh_24px_two_tone</title><desc>Created with Sketch.</desc><defs><path id="path-1" d="M13.65,2.35 C12.2,0.9 10.21,0 8,0 C3.58,0 0.01,3.58 0.01,8 C0.01,12.42 3.58,16 8,16 C11.73,16 14.84,13.45 15.73,10 L13.65,10 C12.83,12.33 10.61,14 8,14 C4.69,14 2,11.31 2,8 C2,4.69 4.69,2 8,2 C9.66,2 11.14,2.69 12.22,3.78 L9,7 L16,7 L16,0 L13.65,2.35 Z"/></defs><g id="icon/navigation/refresh_24px" fill="none" fill-rule="evenodd" stroke="none" stroke-width="1"><g id="↳-Dark-Color" transform="translate(4.000000, 4.000000)"><mask id="mask-2" fill="#fff"><use xlink:href="#path-1"/></mask><g id="✱-/-Color-/-Icons-/-White-/-Active" fill="#FFF" mask="url(#mask-2)"><rect id="Rectangle-13" width="101" height="101" x="0" y="0"/></g></g></g></svg>