<svg xmlns="http://www.w3.org/2000/svg" xmlns:xlink="http://www.w3.org/1999/xlink" width="24" height="24" version="1.1" viewBox="0 0 24 24"><title>icon/action/home_24px_two_tone</title><desc>Created with Sketch.</desc><defs><path id="path-1" d="M10,0 L0,9 L3,9 L3,17 L9,17 L9,11 L11,11 L11,17 L17,17 L17,9 L20,9 L10,0 Z M15,15 L13,15 L13,9 L7,9 L7,15 L5,15 L5,7.19 L10,2.69 L15,7.19 L15,15 Z"/><polygon id="path-3" points="0 5.19 0 13 2 13 2 7 8 7 8 13 10 13 10 5.19 5 .69"/></defs><g id="icon/action/home_24px" fill="none" fill-rule="evenodd" stroke="none" stroke-width="1"><g id="↳-Dark-Color" transform="translate(2.000000, 3.000000)"><mask id="mask-2" fill="#fff"><use xlink:href="#path-1"/></mask><g id="✱-/-Color-/-Icons-/-Black-/-Inactive" fill="#1A7DFF" mask="url(#mask-2)"><rect id="Rectangle" width="101" height="101" x="0" y="0"/></g></g><g id="↳-Light-Color" transform="translate(7.000000, 5.000000)"><mask id="mask-4" fill="#fff"><use xlink:href="#path-3"/></mask><g id="✱-/-Color-/-Icons-/-Black-/-Disabled" fill="#7851F2" fill-opacity=".38" mask="url(#mask-4)"><rect id="Rectangle" width="101" height="101" x="0" y="0"/></g></g></g></svg>