<svg xmlns="http://www.w3.org/2000/svg" xmlns:xlink="http://www.w3.org/1999/xlink" width="24" height="24" version="1.1" viewBox="0 0 24 24"><title>icon/social/person_24px_rounded</title><desc>Created with Sketch.</desc><defs><path id="path-1" d="M12,12 C14.21,12 16,10.21 16,8 C16,5.79 14.21,4 12,4 C9.79,4 8,5.79 8,8 C8,10.21 9.79,12 12,12 Z M12,14 C9.33,14 4,15.34 4,18 L4,19 C4,19.55 4.45,20 5,20 L19,20 C19.55,20 20,19.55 20,19 L20,18 C20,15.34 14.67,14 12,14 Z"/></defs><g id="icon/social/person_24px" fill="none" fill-rule="evenodd" stroke="none" stroke-width="1"><mask id="mask-2" fill="#fff"><use xlink:href="#path-1"/></mask><g id="✱-/-Color-/-Icons-/-Black-/-Active" fill="#000" fill-opacity=".87" mask="url(#mask-2)"><rect id="Rectangle-13" width="24" height="24" x="0" y="0"/></g></g></svg>