<svg xmlns="http://www.w3.org/2000/svg" xmlns:xlink="http://www.w3.org/1999/xlink" width="24" height="24" x="0" y="0" enable-background="new 0 0 24 24" version="1.1" viewBox="0 0 24 24" xml:space="preserve"><g id="Header_x2F_BG" display="none"><rect width="520" height="520" x="-314" y="-446" fill="#F1F1F2" display="inline"/></g><g id="Bounding_Boxes"><path fill="none" d="M0,0h24v24H0V0z"/></g><g id="Rounded" display="none"><path d="M10,19v-5h4v5c0,0.55,0.45,1,1,1h3c0.55,0,1-0.45,1-1v-7h1.7c0.46,0,0.68-0.57,0.33-0.87L12.67,3.6 c-0.38-0.34-0.96-0.34-1.34,0l-8.36,7.53C2.63,11.43,2.84,12,3.3,12H5v7c0,0.55,0.45,1,1,1h3C9.55,20,10,19.55,10,19z" display="inline"/></g><g id="Sharp" display="none"><path d="M10,20v-6h4v6h5v-8h3L12,3L2,12h3v8H10z" display="inline"/></g><g id="Outline" display="none"><path id="XMLID_1_" d="M12,5.69l5,4.5V12v6h-2v-4v-2h-2h-2H9v2v4H7v-6v-1.81L12,5.69 M12,3L2,12h3v8h6v-6h2v6h6 v-8h3L12,3L12,3z" display="inline"/></g><g id="Duotone"><g><path d="M12,3L2,12h3v8h6v-6h2v6h6v-8h3L12,3z M17,18h-2v-6H9v6H7v-7.81l5-4.5l5,4.5V18z"/><polygon points="7 10.19 7 18 9 18 9 12 15 12 15 18 17 18 17 10.19 12 5.69" opacity=".3"/></g></g><g id="Fill" display="none"><path d="M10,20v-6h4v6h5v-8h3L12,3L2,12h3v8H10z" display="inline"/></g></svg>